<svg xmlns="http://www.w3.org/2000/svg" width="752" height="32"><svg id="icon-checked" viewBox="0 0 32 32"><path d="M31.19 6.735a3.13 3.13 0 0 0-4.421-.22l-13.82 12.512-7.664-7.277a3.13 3.13 0 0 0-4.31 4.54l9.631 9.142a3.119 3.119 0 0 0 3.427.588 3.105 3.105 0 0 0 1.299-.705l15.64-14.16a3.13 3.13 0 0 0 .22-4.421z"/></svg><svg id="icon-lightning" viewBox="0 0 32 32"><path d="M11.04.718C11.166.3 11.548 0 11.999 0H20a1 1 0 0 1 .946 1.323l.002-.007L17.388 12h7.613a1 1 0 0 1 .788 1.616l.002-.002-14 18a1 1 0 0 1-1.744-.915l-.002.007L13.647 19H7a1 1 0 0 1-.958-1.289l-.002.007 5-17z"/></svg><svg id="icon-diamond" viewBox="0 0 32 32"><path d="M31.844 9.287 24.392 2.14c-.093-.088-.216-.241-.343-.241H7.953c-.128 0-.251.153-.343.241L.158 9.235a.534.534 0 0 0-.051.696c.105.135 15.412 19.863 15.526 19.991.051.058.12.111.171.133a.45.45 0 0 0 .395.003.517.517 0 0 0 .171-.125c.008-.008.019-.011.026-.02l15.5-19.956a.5.5 0 0 0-.051-.67zm-24.03-6.07 2.497 5.681H1.803l6.011-5.681zm4.226 5.681L16 3.267l3.96 5.631h-7.92zm8.32 1L16 27.337 11.64 9.898h8.719zm-3.397-7h6.271l-2.412 5.487-3.859-5.487zm-5.785 5.488L8.766 2.899h6.271l-3.859 5.487zm-.568 1.512 4.33 17.319L1.488 9.898h9.122zm10.78 0h9.122L17.06 27.217l4.33-17.319zm.299-1 2.497-5.681 6.011 5.681h-8.508z"/></svg><svg id="icon-menu" viewBox="0 0 32 32"><path d="M6.4 11.733V9.6h19.2v2.133H6.4zm0 5.334h19.2v-2.133H6.4v2.133zm0 5.333h19.2v-2.133H6.4V22.4z"/></svg><svg id="icon-close" viewBox="0 0 32 32"><path d="m26.667 7.303-1.97-1.97-7.808 7.808-7.808-7.808-1.97 1.97 7.808 7.808-7.808 7.808 1.97 1.97 7.808-7.808 7.808 7.808 1.97-1.97-7.808-7.808 7.808-7.808z"/></svg></svg>